<svg width="32" height="32" viewBox="0 0 32 32" fill="none" xmlns="http://www.w3.org/2000/svg">
<path d="M25.3333 12.6667H24.9066L23.24 8.50668C22.9423 7.76702 22.4304 7.1332 21.7699 6.68656C21.1095 6.23991 20.3306 6.00084 19.5333 6.00002H11.5333C10.607 5.99737 9.70852 6.31627 8.99118 6.9023C8.27384 7.48833 7.78212 8.30515 7.59996 9.21335L6.90663 12.6667H6.66663C5.60576 12.6667 4.58834 13.0881 3.8382 13.8383C3.08805 14.5884 2.66663 15.6058 2.66663 16.6667V20.6667C2.66663 21.0203 2.8071 21.3594 3.05715 21.6095C3.3072 21.8595 3.64634 22 3.99996 22H5.33329C5.33329 23.0609 5.75472 24.0783 6.50487 24.8284C7.25501 25.5786 8.27243 26 9.33329 26C10.3942 26 11.4116 25.5786 12.1617 24.8284C12.9119 24.0783 13.3333 23.0609 13.3333 22H18.6666C18.6666 23.0609 19.0881 24.0783 19.8382 24.8284C20.5883 25.5786 21.6058 26 22.6666 26C23.7275 26 24.7449 25.5786 25.4951 24.8284C26.2452 24.0783 26.6666 23.0609 26.6666 22H28C28.3536 22 28.6927 21.8595 28.9428 21.6095C29.1928 21.3594 29.3333 21.0203 29.3333 20.6667V16.6667C29.3333 15.6058 28.9119 14.5884 28.1617 13.8383C27.4116 13.0881 26.3942 12.6667 25.3333 12.6667ZM17.3333 8.66668H19.5333C19.7981 8.66908 20.0561 8.75025 20.2746 8.89985C20.493 9.04944 20.662 9.2607 20.76 9.50668L22.0266 12.6667H17.3333V8.66668ZM10.2133 9.73335C10.2756 9.42765 10.4432 9.15349 10.6868 8.95859C10.9304 8.76369 11.2347 8.66039 11.5466 8.66668H14.6666V12.6667H9.62663L10.2133 9.73335ZM9.33329 23.3334C9.06958 23.3334 8.8118 23.2552 8.59253 23.1086C8.37327 22.9621 8.20237 22.7539 8.10145 22.5103C8.00054 22.2666 7.97413 21.9985 8.02558 21.7399C8.07703 21.4813 8.20401 21.2437 8.39048 21.0572C8.57695 20.8707 8.81453 20.7438 9.07317 20.6923C9.33181 20.6409 9.5999 20.6673 9.84354 20.7682C10.0872 20.8691 10.2954 21.04 10.4419 21.2593C10.5884 21.4785 10.6666 21.7363 10.6666 22C10.6666 22.3536 10.5262 22.6928 10.2761 22.9428C10.0261 23.1929 9.68691 23.3334 9.33329 23.3334ZM22.6666 23.3334C22.4029 23.3334 22.1451 23.2552 21.9259 23.1086C21.7066 22.9621 21.5357 22.7539 21.4348 22.5103C21.3339 22.2666 21.3075 21.9985 21.3589 21.7399C21.4104 21.4813 21.5373 21.2437 21.7238 21.0572C21.9103 20.8707 22.1479 20.7438 22.4065 20.6923C22.6651 20.6409 22.9332 20.6673 23.1769 20.7682C23.4205 20.8691 23.6287 21.04 23.7753 21.2593C23.9218 21.4785 24 21.7363 24 22C24 22.3536 23.8595 22.6928 23.6094 22.9428C23.3594 23.1929 23.0202 23.3334 22.6666 23.3334ZM26.6666 19.3334H25.6266C25.2517 18.9209 24.7947 18.5913 24.285 18.3658C23.7753 18.1403 23.224 18.0238 22.6666 18.0238C22.1092 18.0238 21.558 18.1403 21.0482 18.3658C20.5385 18.5913 20.0815 18.9209 19.7066 19.3334H12.2933C11.9184 18.9209 11.4614 18.5913 10.9517 18.3658C10.4419 18.1403 9.89069 18.0238 9.33329 18.0238C8.7759 18.0238 8.22465 18.1403 7.71492 18.3658C7.20518 18.5913 6.7482 18.9209 6.37329 19.3334H5.33329V16.6667C5.33329 16.3131 5.47377 15.9739 5.72382 15.7239C5.97387 15.4738 6.313 15.3334 6.66663 15.3334H25.3333C25.6869 15.3334 26.0261 15.4738 26.2761 15.7239C26.5262 15.9739 26.6666 16.3131 26.6666 16.6667V19.3334Z" fill="black"/>
</svg>
