<svg width="40" height="36" viewBox="0 0 40 36" fill="none" xmlns="http://www.w3.org/2000/svg">
<path d="M25.3333 16.6667H24.9066L23.24 12.5067C22.9423 11.767 22.4304 11.1332 21.7699 10.6866C21.1095 10.2399 20.3306 10.0008 19.5333 10H11.5333C10.607 9.99737 9.70852 10.3163 8.99118 10.9023C8.27384 11.4883 7.78212 12.3052 7.59996 13.2133L6.90663 16.6667H6.66663C5.60576 16.6667 4.58834 17.0881 3.8382 17.8383C3.08805 18.5884 2.66663 19.6058 2.66663 20.6667V24.6667C2.66663 25.0203 2.8071 25.3594 3.05715 25.6095C3.3072 25.8595 3.64634 26 3.99996 26H5.33329C5.33329 27.0609 5.75472 28.0783 6.50487 28.8284C7.25501 29.5786 8.27243 30 9.33329 30C10.3942 30 11.4116 29.5786 12.1617 28.8284C12.9119 28.0783 13.3333 27.0609 13.3333 26H18.6666C18.6666 27.0609 19.0881 28.0783 19.8382 28.8284C20.5883 29.5786 21.6058 30 22.6666 30C23.7275 30 24.7449 29.5786 25.4951 28.8284C26.2452 28.0783 26.6666 27.0609 26.6666 26H28C28.3536 26 28.6927 25.8595 28.9428 25.6095C29.1928 25.3594 29.3333 25.0203 29.3333 24.6667V20.6667C29.3333 19.6058 28.9119 18.5884 28.1617 17.8383C27.4116 17.0881 26.3942 16.6667 25.3333 16.6667ZM17.3333 12.6667H19.5333C19.7981 12.6691 20.0561 12.7502 20.2746 12.8998C20.493 13.0494 20.662 13.2607 20.76 13.5067L22.0266 16.6667H17.3333V12.6667ZM10.2133 13.7334C10.2756 13.4276 10.4432 13.1535 10.6868 12.9586C10.9304 12.7637 11.2347 12.6604 11.5466 12.6667H14.6666V16.6667H9.62663L10.2133 13.7334ZM9.33329 27.3334C9.06958 27.3334 8.8118 27.2552 8.59253 27.1086C8.37327 26.9621 8.20237 26.7539 8.10145 26.5103C8.00054 26.2666 7.97413 25.9985 8.02558 25.7399C8.07703 25.4813 8.20401 25.2437 8.39048 25.0572C8.57695 24.8707 8.81453 24.7437 9.07317 24.6923C9.33181 24.6409 9.5999 24.6673 9.84354 24.7682C10.0872 24.8691 10.2954 25.04 10.4419 25.2593C10.5884 25.4785 10.6666 25.7363 10.6666 26C10.6666 26.3536 10.5262 26.6928 10.2761 26.9428C10.0261 27.1929 9.68691 27.3334 9.33329 27.3334ZM22.6666 27.3334C22.4029 27.3334 22.1451 27.2552 21.9259 27.1086C21.7066 26.9621 21.5357 26.7539 21.4348 26.5103C21.3339 26.2666 21.3075 25.9985 21.3589 25.7399C21.4104 25.4813 21.5373 25.2437 21.7238 25.0572C21.9103 24.8707 22.1479 24.7437 22.4065 24.6923C22.6651 24.6409 22.9332 24.6673 23.1769 24.7682C23.4205 24.8691 23.6287 25.04 23.7753 25.2593C23.9218 25.4785 24 25.7363 24 26C24 26.3536 23.8595 26.6928 23.6094 26.9428C23.3594 27.1929 23.0202 27.3334 22.6666 27.3334ZM26.6666 23.3334H25.6266C25.2517 22.9209 24.7947 22.5913 24.285 22.3658C23.7753 22.1403 23.224 22.0238 22.6666 22.0238C22.1092 22.0238 21.558 22.1403 21.0482 22.3658C20.5385 22.5913 20.0815 22.9209 19.7066 23.3334H12.2933C11.9184 22.9209 11.4614 22.5913 10.9517 22.3658C10.4419 22.1403 9.89069 22.0238 9.33329 22.0238C8.7759 22.0238 8.22465 22.1403 7.71492 22.3658C7.20518 22.5913 6.7482 22.9209 6.37329 23.3334H5.33329V20.6667C5.33329 20.3131 5.47377 19.9739 5.72382 19.7239C5.97387 19.4738 6.313 19.3334 6.66663 19.3334H25.3333C25.6869 19.3334 26.0261 19.4738 26.2761 19.7239C26.5262 19.9739 26.6666 20.3131 26.6666 20.6667V23.3334Z" fill="black"/>
<path d="M31.25 2V8.25M31.25 14.5V8.25M31.25 8.25H38.0357M31.25 8.25H25" stroke="black" stroke-width="2.14286" stroke-linecap="round" stroke-linejoin="round"/>
</svg>
