<svg width="234" height="65" viewBox="0 0 234 65" fill="none" xmlns="http://www.w3.org/2000/svg">
<path d="M226 47.5H229C230.5 47.5 232 47 232 45V32C232 30 230 28.5 229 28.5L216 26.5L202.5 11H170L157.5 27V45C157.5 46.5 158 47.5 160 47.5H164M210 47.5H180M189 28C193 32.5 195.5 34 201.5 37M182 20C191.5 25.5 194.5 22.5 197 25C199.5 27 199.387 32.363 196.5 35C193.459 37.7779 188.285 37.4273 186 34C183 29.5 182 21 182 20Z" stroke="#A9DE8E" stroke-width="3" stroke-linecap="round" stroke-linejoin="round"/>
<circle cx="172" cy="48" r="7.5" stroke="#A9DE8E" stroke-width="3"/>
<circle cx="172" cy="48" r="3.5" stroke="#A9DE8E" stroke-width="3"/>
<circle cx="218" cy="48" r="7.5" stroke="#A9DE8E" stroke-width="3"/>
<circle cx="218" cy="48" r="3.5" stroke="#A9DE8E" stroke-width="3"/>
<path d="M18.768 48.432C15.504 48.432 12.64 47.728 10.176 46.32C7.744 44.912 5.872 42.896 4.56 40.272C3.248 37.648 2.592 34.576 2.592 31.056C2.592 27.536 3.248 24.48 4.56 21.888C5.872 19.264 7.744 17.248 10.176 15.84C12.64 14.432 15.504 13.728 18.768 13.728C20.88 13.728 22.864 14.048 24.72 14.688C26.576 15.296 28.224 16.192 29.664 17.376C30.08 17.696 30.368 18.032 30.528 18.384C30.688 18.736 30.768 19.168 30.768 19.68C30.768 20.384 30.576 20.976 30.192 21.456C29.808 21.936 29.344 22.176 28.8 22.176C28.16 22.176 27.504 21.952 26.832 21.504C25.456 20.48 24.176 19.776 22.992 19.392C21.808 18.976 20.496 18.768 19.056 18.768C15.728 18.768 13.2 19.808 11.472 21.888C9.776 23.968 8.928 27.024 8.928 31.056C8.928 35.12 9.776 38.192 11.472 40.272C13.2 42.352 15.728 43.392 19.056 43.392C20.432 43.392 21.696 43.184 22.848 42.768C24.032 42.352 25.36 41.648 26.832 40.656C27.152 40.464 27.472 40.304 27.792 40.176C28.112 40.048 28.448 39.984 28.8 39.984C29.344 39.984 29.808 40.224 30.192 40.704C30.576 41.184 30.768 41.776 30.768 42.48C30.768 42.96 30.688 43.392 30.528 43.776C30.368 44.128 30.08 44.464 29.664 44.784C28.224 45.968 26.576 46.88 24.72 47.52C22.864 48.128 20.88 48.432 18.768 48.432ZM45.8865 48.384C43.4865 48.384 41.3745 47.888 39.5505 46.896C37.7585 45.904 36.3665 44.48 35.3745 42.624C34.3825 40.768 33.8865 38.608 33.8865 36.144C33.8865 33.68 34.3825 31.536 35.3745 29.712C36.3665 27.856 37.7585 26.432 39.5505 25.44C41.3745 24.448 43.4865 23.952 45.8865 23.952C48.2865 23.952 50.3825 24.448 52.1745 25.44C53.9985 26.432 55.3905 27.856 56.3505 29.712C57.3425 31.536 57.8385 33.68 57.8385 36.144C57.8385 38.608 57.3425 40.768 56.3505 42.624C55.3905 44.48 53.9985 45.904 52.1745 46.896C50.3825 47.888 48.2865 48.384 45.8865 48.384ZM45.8385 43.728C47.7905 43.728 49.2785 43.088 50.3025 41.808C51.3265 40.528 51.8385 38.64 51.8385 36.144C51.8385 33.68 51.3265 31.808 50.3025 30.528C49.2785 29.216 47.8065 28.56 45.8865 28.56C43.9665 28.56 42.4785 29.216 41.4225 30.528C40.3985 31.808 39.8865 33.68 39.8865 36.144C39.8865 38.64 40.3985 40.528 41.4225 41.808C42.4465 43.088 43.9185 43.728 45.8385 43.728ZM87.9439 15.504C88.4559 14.416 89.3039 13.872 90.4879 13.872C91.2879 13.872 92.0079 14.128 92.6479 14.64C93.2879 15.152 93.6079 15.792 93.6079 16.56C93.6079 16.912 93.5119 17.312 93.3199 17.76L80.0239 46.368C79.7359 46.976 79.2879 47.456 78.6799 47.808C78.1039 48.128 77.4799 48.288 76.8079 48.288C76.1359 48.288 75.4959 48.128 74.8879 47.808C74.3119 47.456 73.8799 46.976 73.5919 46.368L60.3439 17.76C60.1519 17.312 60.0559 16.928 60.0559 16.608C60.0559 15.808 60.3759 15.152 61.0159 14.64C61.6879 14.128 62.4399 13.872 63.2719 13.872C63.8159 13.872 64.3119 14.016 64.7599 14.304C65.2399 14.56 65.6079 14.96 65.8639 15.504L76.9039 40.032L87.9439 15.504ZM104.996 48.384C102.596 48.384 100.484 47.888 98.6599 46.896C96.8679 45.904 95.4759 44.48 94.4839 42.624C93.4919 40.768 92.9959 38.608 92.9959 36.144C92.9959 33.68 93.4919 31.536 94.4839 29.712C95.4759 27.856 96.8679 26.432 98.6599 25.44C100.484 24.448 102.596 23.952 104.996 23.952C107.396 23.952 109.492 24.448 111.284 25.44C113.108 26.432 114.5 27.856 115.46 29.712C116.452 31.536 116.948 33.68 116.948 36.144C116.948 38.608 116.452 40.768 115.46 42.624C114.5 44.48 113.108 45.904 111.284 46.896C109.492 47.888 107.396 48.384 104.996 48.384ZM104.948 43.728C106.9 43.728 108.388 43.088 109.412 41.808C110.436 40.528 110.948 38.64 110.948 36.144C110.948 33.68 110.436 31.808 109.412 30.528C108.388 29.216 106.916 28.56 104.996 28.56C103.076 28.56 101.588 29.216 100.532 30.528C99.5079 31.808 98.9959 33.68 98.9959 36.144C98.9959 38.64 99.5079 40.528 100.532 41.808C101.556 43.088 103.028 43.728 104.948 43.728ZM124.877 48.288C124.013 48.288 123.293 48.048 122.717 47.568C122.173 47.056 121.901 46.336 121.901 45.408V26.88C121.901 25.952 122.173 25.248 122.717 24.768C123.293 24.288 124.013 24.048 124.877 24.048C125.741 24.048 126.461 24.288 127.037 24.768C127.613 25.248 127.901 25.952 127.901 26.88V45.408C127.901 46.336 127.613 47.056 127.037 47.568C126.461 48.048 125.741 48.288 124.877 48.288ZM124.877 19.776C123.789 19.776 122.925 19.488 122.285 18.912C121.645 18.304 121.325 17.52 121.325 16.56C121.325 15.6 121.645 14.832 122.285 14.256C122.925 13.68 123.789 13.392 124.877 13.392C125.933 13.392 126.781 13.68 127.421 14.256C128.093 14.832 128.429 15.6 128.429 16.56C128.429 17.52 128.109 18.304 127.469 18.912C126.829 19.488 125.965 19.776 124.877 19.776ZM147.312 43.824C148.912 43.92 149.712 44.64 149.712 45.984C149.712 46.752 149.392 47.344 148.752 47.76C148.144 48.144 147.264 48.304 146.112 48.24L144.816 48.144C139.44 47.76 136.752 44.88 136.752 39.504V29.04H134.352C133.488 29.04 132.816 28.848 132.336 28.464C131.888 28.08 131.664 27.52 131.664 26.784C131.664 26.048 131.888 25.488 132.336 25.104C132.816 24.72 133.488 24.528 134.352 24.528H136.752V20.112C136.752 19.248 137.024 18.56 137.568 18.048C138.112 17.536 138.848 17.28 139.776 17.28C140.672 17.28 141.392 17.536 141.936 18.048C142.48 18.56 142.752 19.248 142.752 20.112V24.528H146.832C147.696 24.528 148.352 24.72 148.8 25.104C149.28 25.488 149.52 26.048 149.52 26.784C149.52 27.52 149.28 28.08 148.8 28.464C148.352 28.848 147.696 29.04 146.832 29.04H142.752V39.936C142.752 42.304 143.84 43.568 146.016 43.728L147.312 43.824Z" fill="#30A4A8"/>
</svg>
