<svg width="24" height="24" viewBox="0 0 24 24" fill="none" xmlns="http://www.w3.org/2000/svg">
<path d="M19.4 7.33986L16.66 4.59986C16.3024 4.26395 15.8338 4.07122 15.3433 4.05831C14.8529 4.0454 14.3748 4.21323 14 4.52986L5 13.5299C4.67676 13.8558 4.4755 14.2831 4.43 14.7399L4 18.9099C3.98653 19.0563 4.00553 19.204 4.05566 19.3422C4.10579 19.4805 4.1858 19.606 4.29 19.7099C4.38344 19.8025 4.49426 19.8759 4.61609 19.9256C4.73793 19.9754 4.86839 20.0006 5 19.9999H5.09L9.26 19.6199C9.7168 19.5744 10.144 19.3731 10.47 19.0499L19.47 10.0499C19.8193 9.68083 20.0081 9.18837 19.995 8.68039C19.9819 8.17242 19.7679 7.69037 19.4 7.33986ZM9.08 17.6199L6.08 17.8999L6.35 14.8999L12 9.31986L14.7 12.0199L9.08 17.6199ZM16 10.6799L13.32 7.99986L15.27 5.99986L18 8.72986L16 10.6799Z" fill="#333333"/>
</svg>
