<svg width="32" height="32" viewBox="0 0 32 32" fill="none" xmlns="http://www.w3.org/2000/svg">
<path d="M16 14.6667C17.0548 14.6667 18.0859 14.3539 18.963 13.7678C19.8401 13.1818 20.5237 12.3489 20.9273 11.3743C21.331 10.3998 21.4366 9.32742 21.2308 8.29285C21.025 7.25829 20.5171 6.30798 19.7712 5.5621C19.0253 4.81622 18.075 4.30827 17.0404 4.10248C16.0059 3.89669 14.9335 4.00231 13.959 4.40598C12.9844 4.80965 12.1515 5.49323 11.5655 6.37029C10.9794 7.24736 10.6666 8.2785 10.6666 9.33334C10.6666 10.7478 11.2285 12.1044 12.2287 13.1046C13.2289 14.1048 14.5855 14.6667 16 14.6667ZM24 28C24.3536 28 24.6927 27.8595 24.9428 27.6095C25.1928 27.3594 25.3333 27.0203 25.3333 26.6667C25.3333 24.1913 24.35 21.8173 22.5996 20.067C20.8493 18.3167 18.4753 17.3333 16 17.3333C13.5246 17.3333 11.1506 18.3167 9.4003 20.067C7.64996 21.8173 6.66663 24.1913 6.66663 26.6667C6.66663 27.0203 6.8071 27.3594 7.05715 27.6095C7.3072 27.8595 7.64634 28 7.99996 28H24Z" fill="black"/>
</svg>
