<svg width="32" height="32" viewBox="0 0 32 32" fill="none" xmlns="http://www.w3.org/2000/svg">
<path d="M28.9467 27.0532L24 22.1465C25.9201 19.7524 26.85 16.7136 26.5984 13.6549C26.3468 10.5963 24.9329 7.75025 22.6474 5.70206C20.3618 3.65388 17.3784 2.55922 14.3106 2.64317C11.2427 2.72711 8.32362 3.98329 6.15352 6.15339C3.98341 8.3235 2.72724 11.2426 2.64329 14.3104C2.55934 17.3783 3.654 20.3617 5.70219 22.6472C7.75037 24.9328 10.5964 26.3467 13.6551 26.5983C16.7137 26.8499 19.7525 25.92 22.1467 23.9999L27.0533 28.9065C27.1773 29.0315 27.3247 29.1307 27.4872 29.1984C27.6497 29.2661 27.824 29.3009 28 29.3009C28.176 29.3009 28.3503 29.2661 28.5128 29.1984C28.6752 29.1307 28.8227 29.0315 28.9467 28.9065C29.187 28.6579 29.3213 28.3257 29.3213 27.9799C29.3213 27.6341 29.187 27.3018 28.9467 27.0532V27.0532ZM14.6667 23.9999C12.8207 23.9999 11.0162 23.4525 9.48134 22.4269C7.94648 21.4014 6.7502 19.9437 6.04379 18.2383C5.33737 16.5328 5.15254 14.6562 5.51266 12.8457C5.87279 11.0352 6.76171 9.37217 8.067 8.06688C9.37229 6.76159 11.0353 5.87267 12.8458 5.51254C14.6563 5.15241 16.5329 5.33725 18.2384 6.04366C19.9438 6.75008 21.4015 7.94636 22.427 9.48122C23.4526 11.0161 24 12.8206 24 14.6665C24 17.1419 23.0167 19.5159 21.2663 21.2662C19.516 23.0165 17.142 23.9999 14.6667 23.9999V23.9999Z" fill="black"/>
</svg>
